<svg id="Layer_1" data-name="Layer 1" xmlns="http://www.w3.org/2000/svg" viewBox="0 0 20 20"><title>Artboard 1</title><g id="g6"><path id="path10" d="M4.33,3.06V5.32H4.11a.51.51,0,0,1-.28,0,10.25,10.25,0,0,1-.06-2.22c0-2.46,0-2.22-.4-2.09l-.24.08,0,2.12,0,2.13H2.84a.56.56,0,0,1-.3,0,8,8,0,0,1-.06-1.93c0-1.73,0-1.88-.08-1.88a2.55,2.55,0,0,0-.51.43,2.53,2.53,0,0,0-.65.9c-.37.76-.38.78-.4,2.53l0,1.54h3c1.64,0,3,0,3,0a4,4,0,0,1,.85-.66,4.94,4.94,0,0,1,1.31-.55,4.84,4.84,0,0,1,2.11,0,5.12,5.12,0,0,1,1.94,1l.28.23h5.92l0-1.56A6.5,6.5,0,0,0,19,3.43a3.18,3.18,0,0,0-1-1.53,3.28,3.28,0,0,0-1.54-1l-.33-.1H5.58v4.5H5.35a.51.51,0,0,1-.28,0A10.61,10.61,0,0,1,5,3V.82H4.34Zm12.75-.54a.63.63,0,0,1,.22.24c.08.16.09.26.09,1.23,0,1.52,0,1.48-1.46,1.48-1.15,0-1.28,0-1.43-.32s-.09-.24-.08-1.28V2.76l.16-.15.17-.15h1.09A4,4,0,0,1,17.08,2.52Z"/><path id="path12" d="M9.47,6.48a3.67,3.67,0,0,0-3.08,3,4.44,4.44,0,0,0,.09,1.63,3.09,3.09,0,0,0,.93,1.51,3.07,3.07,0,0,0,1.38.91A3.68,3.68,0,0,0,13.53,11a4.57,4.57,0,0,0,0-1.75,3.27,3.27,0,0,0-1-1.75,3.19,3.19,0,0,0-1.83-1A5,5,0,0,0,9.47,6.48Zm1,1.1a3.76,3.76,0,0,1,1.24.59,3,3,0,0,1,.8,1.32,2.67,2.67,0,0,1,0,1.35A2.63,2.63,0,0,1,10,12.66a2.46,2.46,0,0,1-1.15-.29,2.55,2.55,0,0,1-1.43-2.29,2.58,2.58,0,0,1,2.06-2.5A1.86,1.86,0,0,1,10.44,7.58Z"/><path id="path14" d="M.84,11.8v4.47l.1.33a3.27,3.27,0,0,0,1,1.53,3.22,3.22,0,0,0,1.56,1l.35.1h12.3l.35-.1A3.53,3.53,0,0,0,18.2,18,3.8,3.8,0,0,0,19,16.55l.1-.33V7.33H16.44a12.4,12.4,0,0,0-2.73.07,1.1,1.1,0,0,0,.16.31,4.49,4.49,0,0,1,.22,4.41,4.59,4.59,0,0,1-3.65,2.53,4.66,4.66,0,0,1-3.73-1.39A4.25,4.25,0,0,1,5.85,12a3.72,3.72,0,0,1-.42-1.89,3.63,3.63,0,0,1,.1-1,4.76,4.76,0,0,1,.55-1.33,1.31,1.31,0,0,0,.16-.32,12.18,12.18,0,0,0-2.71-.07H.83Z"/></g></svg>